<?xml version="1.0" standalone="no"?>
<!DOCTYPE svg PUBLIC "-//W3C//DTD SVG 20010904//EN"
 "http://www.w3.org/TR/2001/REC-SVG-20010904/DTD/svg10.dtd">
<svg version="1.0" xmlns="http://www.w3.org/2000/svg"
 width="260.000000pt" height="260.000000pt" viewBox="0 0 260.000000 260.000000"
 preserveAspectRatio="xMidYMid meet">
<metadata>
Created by potrace 1.11, written by Peter Selinger 2001-2013
</metadata>
<g transform="translate(0.000000,260.000000) scale(0.100000,-0.100000)"
fill="#000000" stroke="none">
<path d="M2149 2596 c-3 -3 -61 -7 -130 -10 -104 -3 -134 -8 -184 -29 -105
-43 -151 -66 -222 -107 -37 -23 -74 -44 -82 -49 -8 -4 -17 -13 -19 -19 -3 -11
160 63 192 86 30 22 126 45 193 47 76 2 89 -4 51 -23 -36 -16 -190 -133 -185
-139 3 -3 26 9 51 26 85 59 229 116 281 112 61 -4 160 -90 217 -188 65 -110
70 -161 26 -259 -17 -39 -23 -44 -51 -44 -38 0 -48 6 -65 40 -27 51 -101 120
-130 120 -10 0 -13 -14 -10 -52 3 -50 2 -53 -20 -50 -15 2 -25 -3 -30 -19 -7
-19 -10 -20 -15 -5 -5 12 -16 16 -42 14 -28 -2 -38 -8 -48 -30 -13 -30 -27
-37 -27 -14 0 20 -16 28 -57 32 -47 3 -103 -30 -103 -62 0 -32 -8 -30 -47 13
-27 29 -36 34 -43 23 -10 -16 -32 -20 -125 -23 -38 -1 -77 -6 -85 -10 -8 -4
-37 -8 -65 -10 l-50 -3 2 -43 2 -43 -31 32 -31 33 -19 -27 c-11 -14 -24 -24
-29 -20 -5 3 -9 1 -9 -5 0 -5 -9 -13 -21 -16 -14 -5 -19 -13 -16 -26 3 -10 -4
-28 -14 -40 -10 -12 -19 -25 -19 -28 0 -3 -13 -15 -27 -25 -24 -18 -46 -20
-232 -21 -238 -3 -274 -7 -356 -43 -147 -66 -249 -143 -288 -217 -29 -57 -39
-148 -35 -297 4 -116 2 -157 -13 -216 -23 -91 -53 -160 -84 -192 -38 -40 -55
-88 -42 -124 5 -17 14 -37 20 -44 11 -14 3 -63 -49 -291 -37 -159 -38 -195 -4
-206 15 -5 19 -13 16 -31 -6 -33 18 -54 63 -54 65 0 69 26 18 102 -15 22 -18
39 -13 85 20 187 61 315 129 395 32 38 49 59 74 91 60 77 229 248 260 262 35
17 36 17 54 -6 29 -38 38 -85 40 -217 2 -140 10 -178 50 -222 63 -69 273 -363
283 -398 7 -22 26 -31 26 -12 0 20 18 9 24 -14 3 -14 13 -32 22 -40 17 -18 80
-21 104 -6 13 8 13 12 0 34 -8 13 -40 51 -71 83 -71 76 -185 233 -215 298 -34
75 -51 353 -28 460 10 47 12 50 40 48 127 -11 251 -3 340 22 78 22 118 27 147
16 29 -11 33 -29 42 -191 3 -52 8 -131 12 -175 14 -158 7 -357 -16 -435 -15
-54 -17 -78 -10 -98 7 -19 12 -23 18 -13 6 9 14 6 30 -15 11 -14 21 -35 21
-44 0 -21 19 -30 65 -30 63 0 61 25 -10 126 -17 24 -20 44 -20 129 0 128 9
200 28 247 9 21 18 72 21 115 12 158 18 214 26 243 5 17 7 30 4 30 -2 0 2 13
11 30 9 16 17 30 18 30 9 0 80 -58 158 -131 65 -60 97 -98 119 -142 16 -33 28
-62 26 -66 -2 -3 -7 -44 -10 -91 -10 -119 -23 -171 -53 -202 -14 -15 -23 -33
-20 -41 3 -8 -7 -27 -24 -43 -16 -15 -29 -38 -29 -51 0 -28 36 -103 50 -103 5
0 24 21 41 48 18 26 45 63 60 82 45 57 54 110 64 370 l7 155 -87 132 c-69 106
-85 137 -79 155 3 13 10 25 14 28 13 9 62 112 76 162 16 52 30 69 119 143 73
61 96 85 147 153 41 53 52 60 63 42 4 -6 34 -24 68 -41 74 -37 97 -56 97 -80
0 -28 48 -59 91 -59 102 0 86 144 -39 357 -16 28 -18 41 -10 85 4 29 16 66 24
82 17 29 53 214 58 296 6 91 -51 256 -107 310 -14 14 -49 40 -79 57 -46 28
-67 34 -138 39 -47 3 -88 3 -91 0z m207 -128 c35 -24 89 -100 98 -138 3 -14 8
-59 10 -100 l6 -75 -20 68 c-30 100 -72 187 -112 230 -39 41 -31 49 18 15z
m-2078 -1221 c2 -28 10 -82 18 -120 15 -66 15 -68 -11 -147 -25 -74 -50 -119
-39 -68 3 13 7 100 9 195 3 146 7 193 18 193 1 0 3 -24 5 -53z"/>
</g>
</svg>
